<svg xmlns="http://www.w3.org/2000/svg" viewBox="0 0 20.209 19">
  <g id="house-outline" transform="translate(0 -18.3)">
    <g id="Group_9" data-name="Group 9" transform="translate(0 18.3)">
      <path id="Path_8" data-name="Path 8" d="M97.727,300.251a.574.574,0,0,0-.582.583V308.8h-4.13v-3.251a.575.575,0,0,0-.561-.572H89.467a.589.589,0,0,0-.593.572V308.8h-4.12v-7.7a.572.572,0,0,0-1.144,0v8.28a.566.566,0,0,0,.561.563h5.3a.566.566,0,0,0,.561-.563v-3.251h1.843v3.251a.571.571,0,0,0,.582.563h5.274a.566.566,0,0,0,.561-.563v-8.544A.569.569,0,0,0,97.727,300.251Z" transform="translate(-80.85 -290.941)"/>
      <path id="Path_9" data-name="Path 9" d="M20.044,28.064l-4.6-4.616V20.3a.582.582,0,0,0-.593-.581.569.569,0,0,0-.561.581v1.993L10.5,18.481a.557.557,0,0,0-.392-.181.575.575,0,0,0-.413.181L.177,28a.545.545,0,0,0,0,.8.546.546,0,0,0,.8,0L10.11,19.7l9.107,9.193a.563.563,0,0,0,.413.149.64.64,0,0,0,.413-.149A.6.6,0,0,0,20.044,28.064Z" transform="translate(0 -18.3)"/>
    </g>
  </g>
</svg>
